<?xml version="1.0" standalone="no"?>
<!DOCTYPE svg PUBLIC "-//W3C//DTD SVG 20010904//EN"
 "http://www.w3.org/TR/2001/REC-SVG-20010904/DTD/svg10.dtd">
<svg version="1.0" xmlns="http://www.w3.org/2000/svg"
 width="60.000000pt" height="60.000000pt" viewBox="0 0 60.000000 60.000000"
 preserveAspectRatio="xMidYMid meet">

<g transform="translate(0.000000,60.000000) scale(0.100000,-0.100000)"
fill="#000000" stroke="none">
<path d="M220 527 c-49 -16 -133 -102 -148 -153 -28 -94 -8 -169 63 -239 102
-103 243 -101 338 5 90 100 90 220 0 320 -65 72 -158 97 -253 67z m76 -138 c3
-6 -6 -24 -21 -39 l-28 -29 84 -3 c67 -2 84 -6 84 -18 0 -12 -17 -16 -84 -18
l-84 -3 28 -29 c23 -24 26 -33 17 -42 -10 -10 -24 -1 -64 40 l-53 52 50 50
c52 52 60 57 71 39z"/>
</g>
</svg>
